<svg width="176" height="96" viewBox="0 0 176 96" fill="none" xmlns="http://www.w3.org/2000/svg">
<g filter="url(#filter0_dd_297016_675)">
<rect x="4.5" y="0.5" width="167" height="87" rx="3.5" stroke="#8E8F99"/>
<g filter="url(#filter1_d_297016_675)">
<path fill-rule="evenodd" clip-rule="evenodd" d="M74 23L81.0078 29.6764L68 29.6687V62.0609H102V49.6758L109 56.3448V23H74ZM101.692 48.8922L81.8226 29.962H101.692V48.8922ZM95.5231 57.3227H73.3801V35.5373H74.9453V55.8475H95.5231V57.3227ZM77.7959 68.0611L76.9707 66.3643H76.2896L77.4858 68.6104V69.919H78.1035V68.6104L79.2998 66.3643H78.6211L77.7959 68.0611ZM80.8379 66.3643H80.9844L82.3271 69.919H81.6826L81.395 69.0865H80.0189L79.7319 69.919H79.0898L80.4277 66.3643H80.5718H80.8379ZM80.1864 68.6007H81.2271L80.7062 67.0927L80.1864 68.6007ZM84.4821 68.0117C84.4553 67.9776 84.4295 67.9445 84.4048 67.9122C84.3136 67.7917 84.2428 67.6754 84.1924 67.5631C84.1419 67.4491 84.1167 67.3319 84.1167 67.2115C84.1167 67.026 84.1549 66.8665 84.2314 66.733C84.3079 66.5995 84.4162 66.497 84.5562 66.4254C84.6961 66.3521 84.8597 66.3155 85.0469 66.3155C85.2275 66.3155 85.383 66.3521 85.5132 66.4254C85.645 66.497 85.7459 66.5922 85.8159 66.711C85.8875 66.8298 85.9233 66.96 85.9233 67.1016C85.9233 67.2139 85.903 67.3165 85.8623 67.4093C85.8216 67.502 85.7655 67.5867 85.6938 67.6632C85.6222 67.7397 85.5392 67.8121 85.4448 67.8805L85.1979 68.0602L85.9018 68.8909C85.925 68.8453 85.946 68.7973 85.9648 68.7472C86.0251 68.5909 86.0552 68.4176 86.0552 68.2271H86.563C86.563 68.3997 86.5459 68.5632 86.5117 68.7179C86.4792 68.8725 86.4263 69.0157 86.353 69.1475C86.3233 69.2022 86.2897 69.2545 86.2522 69.3044L86.7729 69.919H86.0918L85.8852 69.676C85.7734 69.7609 85.6518 69.8272 85.5205 69.8751C85.348 69.9369 85.1641 69.9679 84.9688 69.9679C84.7327 69.9679 84.5285 69.9247 84.356 69.8385C84.1834 69.7522 84.05 69.6334 83.9556 69.482C83.8628 69.3306 83.8164 69.1573 83.8164 68.962C83.8164 68.8171 83.8465 68.6902 83.9067 68.5811C83.967 68.4705 84.0492 68.3679 84.1533 68.2735C84.2495 68.1862 84.3591 68.099 84.4821 68.0117ZM84.7738 68.3689L84.7002 68.4224C84.6139 68.4924 84.5496 68.56 84.5073 68.6251C84.4666 68.6886 84.4398 68.7472 84.4268 68.8009C84.4137 68.8546 84.4072 68.9018 84.4072 68.9425C84.4072 69.0466 84.4292 69.141 84.4731 69.2257C84.5187 69.3103 84.5846 69.3778 84.6709 69.4283C84.7588 69.4771 84.8654 69.5015 84.9907 69.5015C85.1258 69.5015 85.2568 69.4714 85.3838 69.4112C85.4474 69.3802 85.5078 69.3429 85.5648 69.2992L84.7738 68.3689ZM84.9143 67.7196L85.1323 67.5728C85.2349 67.5045 85.3081 67.4377 85.3521 67.3726C85.396 67.3059 85.418 67.2229 85.418 67.1236C85.418 67.039 85.3854 66.9609 85.3203 66.8892C85.2552 66.8176 85.1632 66.7818 85.0444 66.7818C84.9614 66.7818 84.8914 66.8013 84.8345 66.8404C84.7775 66.8778 84.7344 66.9283 84.7051 66.9918C84.6774 67.0536 84.6636 67.1228 84.6636 67.1993C84.6636 67.2725 84.6823 67.3482 84.7197 67.4263C84.7572 67.5028 84.8084 67.5834 84.8735 67.668C84.8868 67.685 84.9004 67.7021 84.9143 67.7196ZM91.1333 68.7618H90.5229C90.505 68.9164 90.4676 69.0474 90.4106 69.1549C90.3553 69.2607 90.2731 69.3412 90.1641 69.3966C90.0566 69.4519 89.9159 69.4796 89.7417 69.4796C89.5985 69.4796 89.4756 69.4511 89.373 69.3941C89.2705 69.3372 89.1859 69.2566 89.1191 69.1524C89.054 69.0483 89.0052 68.9237 88.9727 68.7789C88.9417 68.6324 88.9263 68.4696 88.9263 68.2906V67.9903C88.9263 67.8015 88.9434 67.6339 88.9775 67.4874C89.0133 67.3393 89.0662 67.2148 89.1362 67.1138C89.2062 67.0129 89.2933 66.9364 89.3975 66.8844C89.5016 66.8323 89.6237 66.8062 89.7637 66.8062C89.9346 66.8062 90.0729 66.8355 90.1787 66.8941C90.2845 66.9511 90.3643 67.0341 90.418 67.1431C90.4733 67.2522 90.5091 67.3832 90.5254 67.5362H91.1357C91.1113 67.2986 91.0446 67.0878 90.9355 66.9039C90.8281 66.72 90.6768 66.5759 90.4814 66.4718C90.2861 66.3676 90.0469 66.3155 89.7637 66.3155C89.5407 66.3155 89.3397 66.3546 89.1606 66.4327C88.9832 66.5108 88.8311 66.6239 88.7041 66.7721C88.5771 66.9185 88.4795 67.0951 88.4111 67.3018C88.3444 67.5085 88.311 67.7397 88.311 67.9952V68.2906C88.311 68.5461 88.3436 68.7773 88.4087 68.984C88.4754 69.1907 88.5715 69.3673 88.6968 69.5138C88.8221 69.6586 88.9727 69.7709 89.1484 69.8507C89.3242 69.9288 89.522 69.9679 89.7417 69.9679C90.0282 69.9679 90.2715 69.9158 90.4717 69.8116C90.6719 69.7074 90.8273 69.565 90.938 69.3844C91.0487 69.2021 91.1138 68.9945 91.1333 68.7618ZM94.5244 68.2393V68.044C94.5244 67.7755 94.4886 67.5354 94.417 67.3238C94.347 67.1106 94.2469 66.9291 94.1167 66.7794C93.9865 66.628 93.8311 66.5133 93.6504 66.4351C93.4697 66.3554 93.2695 66.3155 93.0498 66.3155C92.8317 66.3155 92.6323 66.3554 92.4517 66.4351C92.2726 66.5133 92.1172 66.628 91.9854 66.7794C91.8551 66.9291 91.7542 67.1106 91.6826 67.3238C91.611 67.5354 91.5752 67.7755 91.5752 68.044V68.2393C91.5752 68.5079 91.611 68.7488 91.6826 68.962C91.7559 69.1752 91.8584 69.3567 91.9902 69.5064C92.1221 69.6562 92.2775 69.7709 92.4565 69.8507C92.6372 69.9288 92.8366 69.9679 93.0547 69.9679C93.2744 69.9679 93.4746 69.9288 93.6553 69.8507C93.8359 69.7709 93.9906 69.6562 94.1191 69.5064C94.2493 69.3567 94.3494 69.1752 94.4194 68.962C94.4894 68.7488 94.5244 68.5079 94.5244 68.2393ZM93.9116 68.0391V68.2393C93.9116 68.4379 93.8921 68.6137 93.853 68.7667C93.8156 68.9197 93.7603 69.0491 93.687 69.1549C93.6138 69.259 93.5243 69.338 93.4185 69.3917C93.3127 69.4438 93.1914 69.4698 93.0547 69.4698C92.9196 69.4698 92.7992 69.4438 92.6934 69.3917C92.5876 69.338 92.4964 69.259 92.4199 69.1549C92.3451 69.0491 92.2881 68.9197 92.249 68.7667C92.21 68.6137 92.1904 68.4379 92.1904 68.2393V68.0391C92.1904 67.8406 92.21 67.6656 92.249 67.5142C92.2881 67.3612 92.3442 67.2335 92.4175 67.1309C92.4923 67.0268 92.5827 66.9486 92.6885 66.8966C92.7943 66.8429 92.9147 66.816 93.0498 66.816C93.1849 66.816 93.3062 66.8429 93.4136 66.8966C93.521 66.9486 93.6113 67.0268 93.6846 67.1309C93.7594 67.2335 93.8156 67.3612 93.853 67.5142C93.8921 67.6656 93.9116 67.8406 93.9116 68.0391Z" fill="#8E8F99"/>
</g>
</g>
<defs>
<filter id="filter0_dd_297016_675" x="0" y="0" width="176" height="96" filterUnits="userSpaceOnUse" color-interpolation-filters="sRGB">
<feFlood flood-opacity="0" result="BackgroundImageFix"/>
<feColorMatrix in="SourceAlpha" type="matrix" values="0 0 0 0 0 0 0 0 0 0 0 0 0 0 0 0 0 0 127 0" result="hardAlpha"/>
<feOffset dy="4"/>
<feGaussianBlur stdDeviation="2"/>
<feComposite in2="hardAlpha" operator="out"/>
<feColorMatrix type="matrix" values="0 0 0 0 0 0 0 0 0 0 0 0 0 0 0 0 0 0 0.25 0"/>
<feBlend mode="normal" in2="BackgroundImageFix" result="effect1_dropShadow_297016_675"/>
<feColorMatrix in="SourceAlpha" type="matrix" values="0 0 0 0 0 0 0 0 0 0 0 0 0 0 0 0 0 0 127 0" result="hardAlpha"/>
<feOffset dy="4"/>
<feGaussianBlur stdDeviation="2"/>
<feComposite in2="hardAlpha" operator="out"/>
<feColorMatrix type="matrix" values="0 0 0 0 0 0 0 0 0 0 0 0 0 0 0 0 0 0 0.25 0"/>
<feBlend mode="normal" in2="effect1_dropShadow_297016_675" result="effect2_dropShadow_297016_675"/>
<feBlend mode="normal" in="SourceGraphic" in2="effect2_dropShadow_297016_675" result="shape"/>
</filter>
<filter id="filter1_d_297016_675" x="32" y="16" width="112" height="64" filterUnits="userSpaceOnUse" color-interpolation-filters="sRGB">
<feFlood flood-opacity="0" result="BackgroundImageFix"/>
<feColorMatrix in="SourceAlpha" type="matrix" values="0 0 0 0 0 0 0 0 0 0 0 0 0 0 0 0 0 0 127 0" result="hardAlpha"/>
<feOffset dy="4"/>
<feGaussianBlur stdDeviation="2"/>
<feComposite in2="hardAlpha" operator="out"/>
<feColorMatrix type="matrix" values="0 0 0 0 0 0 0 0 0 0 0 0 0 0 0 0 0 0 0.25 0"/>
<feBlend mode="normal" in2="BackgroundImageFix" result="effect1_dropShadow_297016_675"/>
<feBlend mode="normal" in="SourceGraphic" in2="effect1_dropShadow_297016_675" result="shape"/>
</filter>
</defs>
</svg>
